<svg width="1728" height="535" viewBox="0 0 1728 535" fill="none" xmlns="http://www.w3.org/2000/svg">
<path d="M1760.27 229.715C1754.74 231.871 1744.55 231.189 1739.4 231.241C1711.99 231.518 1684.56 231.331 1657.15 231.331C1610.02 231.331 1562.88 231.331 1515.74 231.331C1456.1 231.331 1396.73 228.966 1337.14 228.188C1226.02 226.736 1114.51 226.481 1003.37 226.481C962.62 226.481 921.66 226.757 881.358 231.69C849.614 235.576 818.909 242.4 787.821 248.305C757.803 254.006 727.355 260.29 696.616 263.482C650.653 268.255 603.756 268.512 557.415 268.512C498.555 268.512 439.595 267.857 380.774 269.679C297.996 272.244 215.895 280.134 133.305 284.318C92.6637 286.376 51.2528 287.496 10.5526 285.575C-21.2637 284.073 -52.0731 279.827 -84.0895 279.827C-96.5323 279.827 -113.68 281.921 -125.334 277.762C-137.514 273.415 -139.425 262.606 -142.151 253.963" stroke="url(#paint0_linear_2254_395)" stroke-width="0.5" stroke-linecap="round"/>
<path d="M-170.876 295.993C-86.4223 295.993 -1.96865 295.993 82.485 295.993C132.074 295.993 180.53 294.819 229.911 292.131C281.231 289.339 334.967 289.618 385.929 294.736C436.259 299.79 486.013 305.756 536.914 306.95C588.402 308.157 640.073 307.309 691.583 307.309C739.445 307.309 774.537 317.953 816.422 333.623C849.702 346.073 882.544 346.968 919.411 345.747C957.474 344.486 987.917 335.837 1022.28 325.091C1056.19 314.483 1090.52 311.978 1126.99 309.734C1187.21 306.028 1247.67 307.583 1308.05 307.219C1386.81 306.745 1465.28 302.101 1543.98 300.843C1576.4 300.324 1608.69 294.04 1639.97 288.27C1672.07 282.348 1703.78 281.944 1736.57 284.767C1782.9 288.754 1828.64 289.527 1875.16 289.527" stroke="url(#paint1_linear_2254_395)" stroke-width="0.5" stroke-linecap="round"/>
<path d="M1881.79 260.429C1847.34 260.429 1812.89 260.429 1778.43 260.429C1719.66 260.429 1661.92 267.157 1603.39 270.128C1491.73 275.796 1378.34 271.744 1266.43 271.744C1231.59 271.744 1198.4 273.001 1164.43 267.703C1128.23 262.059 1093.67 255.849 1059.35 245.88C1021.67 234.934 982.227 227.243 944.698 216.063C919.921 208.682 892.482 199 865.277 199C838.299 199 811.344 206.576 786.102 212.651C768.936 216.782 751.356 219.658 734.792 225.044C713.708 231.9 693.034 239.357 670.715 243.904C636.689 250.836 597.397 250.975 562.324 253.154C535.921 254.794 509.407 254.928 483.026 256.567C450.622 258.58 418.692 263.677 386.42 266.535C275.393 276.37 161.986 271.744 50.3241 271.744C-35.2336 271.744 -120.708 273.361 -206.229 273.361" stroke="url(#paint2_linear_2254_395)" stroke-width="0.5" stroke-linecap="round"/>
<path d="M-246 321.857C-178.895 321.857 -111.791 321.857 -44.686 321.857C34.0264 321.857 115.098 325.864 192.963 316.11C264.088 307.199 332.779 294.382 405.079 291.143C485.149 287.556 564.932 288.789 645.06 287.82C703.122 287.118 759.638 279.539 817.281 276.774C845.029 275.443 858.654 284.508 882.586 294.017C904.464 302.71 927.829 312.811 950.959 319.432C966.541 323.893 981.112 326.707 997.85 326.707C1007.2 326.707 1022.89 328.897 1031.12 324.731C1046.39 316.996 1046.16 297.436 1058.12 287.012C1072.97 274.073 1097.55 269.795 1118.27 264.47C1150.66 256.145 1187.68 255.428 1221.63 252.346C1274.64 247.533 1329 248.968 1382.31 247.496C1433.79 246.075 1484.8 244.702 1536.12 241.838C1582.59 239.245 1630.91 237.417 1677.53 240.132C1745.9 244.114 1816.46 238.085 1884 247.496" stroke="url(#paint3_linear_2254_395)" stroke-width="0.5" stroke-linecap="round"/>
<rect x="403" y="103" width="14" height="14" fill="#D9D9D9"/>
<rect x="1054" width="14" height="14" fill="#D9D9D9"/>
<rect x="1569" y="521" width="14" height="14" fill="#D9D9D9"/>
<rect x="1258" y="184" width="14" height="14" fill="#D9D9D9"/>
<rect x="630" y="459" width="14" height="14" fill="#D9D9D9"/>
<defs>
<linearGradient id="paint0_linear_2254_395" x1="156.201" y1="256.894" x2="1511.86" y2="246.456" gradientUnits="userSpaceOnUse">
<stop offset="0.015" stop-color="#E1E1E1" stop-opacity="0.29"/>
<stop offset="0.49" stop-color="#D4D4D4"/>
<stop offset="1" stop-color="#E1E1E1" stop-opacity="0.03"/>
</linearGradient>
<linearGradient id="paint1_linear_2254_395" x1="150" y1="315" x2="1608" y2="303.5" gradientUnits="userSpaceOnUse">
<stop offset="0.015" stop-color="#E1E1E1" stop-opacity="0.29"/>
<stop offset="0.49" stop-color="#D4D4D4"/>
<stop offset="1" stop-color="#E1E1E1" stop-opacity="0.03"/>
</linearGradient>
<linearGradient id="paint2_linear_2254_395" x1="121.231" y1="236.639" x2="1609.17" y2="226.479" gradientUnits="userSpaceOnUse">
<stop offset="0.015" stop-color="#E1E1E1" stop-opacity="0.29"/>
<stop offset="0.49" stop-color="#D4D4D4"/>
<stop offset="1" stop-color="#E1E1E1" stop-opacity="0.03"/>
</linearGradient>
<linearGradient id="paint3_linear_2254_395" x1="88.0437" y1="283.581" x2="1605.92" y2="274.697" gradientUnits="userSpaceOnUse">
<stop offset="0.015" stop-color="#E1E1E1" stop-opacity="0.29"/>
<stop offset="0.49" stop-color="#D4D4D4"/>
<stop offset="1" stop-color="#E1E1E1" stop-opacity="0.03"/>
</linearGradient>
</defs>
</svg>
